# Blender v2.93.5 OBJ File: ''
# www.blender.org
mtllib cylinder_smooth.mtl
o Cylinder.002
v -0.473574 0.013846 -0.249912
v -0.473574 0.153287 -0.249912
v -0.354918 0.013846 -0.224691
v -0.354918 0.153287 -0.224691
v -0.256778 0.013846 -0.153388
v -0.256778 0.153287 -0.153388
v -0.196125 0.013846 -0.048333
v -0.196125 0.153287 -0.048333
v -0.183445 0.013846 0.072309
v -0.183445 0.153287 0.072309
v -0.220931 0.013846 0.187679
v -0.220931 0.153287 0.187679
v -0.302101 0.013846 0.277827
v -0.302101 0.153287 0.277827
v -0.412920 0.013846 0.327167
v -0.412920 0.153287 0.327167
v -0.534227 0.013846 0.327167
v -0.534227 0.153287 0.327167
v -0.645047 0.013846 0.277827
v -0.645047 0.153287 0.277827
v -0.726217 0.013846 0.187679
v -0.726217 0.153287 0.187679
v -0.763703 0.013846 0.072309
v -0.763703 0.153287 0.072309
v -0.751023 0.013846 -0.048334
v -0.751023 0.153287 -0.048334
v -0.690369 0.013846 -0.153388
v -0.690369 0.153287 -0.153388
v -0.592230 0.013846 -0.224691
v -0.592230 0.153287 -0.224691
v -0.473574 0.078530 -0.249912
v -0.354918 0.078530 -0.224691
v -0.256778 0.078530 -0.153388
v -0.196125 0.078530 -0.048333
v -0.183445 0.078530 0.072309
v -0.220931 0.078530 0.187679
v -0.302101 0.078530 0.277827
v -0.412920 0.078530 0.327167
v -0.534227 0.078530 0.327167
v -0.645047 0.078530 0.277827
v -0.726217 0.078530 0.187679
v -0.763703 0.078530 0.072309
v -0.751023 0.078530 -0.048334
v -0.690369 0.078530 -0.153388
v -0.592230 0.078530 -0.224691
vt 1.000000 1.000000
vt 0.933333 0.750000
vt 1.000000 0.750000
vt 0.933333 1.000000
vt 0.866667 0.750000
vt 0.866667 1.000000
vt 0.800000 0.750000
vt 0.800000 1.000000
vt 0.733333 0.750000
vt 0.733333 1.000000
vt 0.666667 0.750000
vt 0.666667 1.000000
vt 0.600000 0.750000
vt 0.600000 1.000000
vt 0.533333 0.750000
vt 0.533333 1.000000
vt 0.466667 0.750000
vt 0.466667 1.000000
vt 0.400000 0.750000
vt 0.400000 1.000000
vt 0.333333 0.750000
vt 0.333333 1.000000
vt 0.266667 0.750000
vt 0.266667 1.000000
vt 0.200000 0.750000
vt 0.200000 1.000000
vt 0.133333 0.750000
vt 0.133333 1.000000
vt 0.066667 0.750000
vt 0.066667 1.000000
vt 0.000000 0.750000
vt 0.000000 0.500000
vt 0.066667 0.500000
vt 0.133333 0.500000
vt 0.200000 0.500000
vt 0.266667 0.500000
vt 0.333333 0.500000
vt 0.400000 0.500000
vt 0.466667 0.500000
vt 0.533333 0.500000
vt 0.600000 0.500000
vt 0.666667 0.500000
vt 0.733333 0.500000
vt 0.800000 0.500000
vt 0.866667 0.500000
vt 0.933333 0.500000
vt 1.000000 0.500000
vt 0.000000 1.000000
vn 0.0000 0.0000 -1.0000
vn 0.4067 0.0000 -0.9135
vn 0.7431 0.0000 -0.6691
vn 0.9510 0.0000 -0.3090
vn 0.9945 0.0000 0.1045
vn 0.8660 0.0000 0.5000
vn 0.5878 0.0000 0.8090
vn 0.2079 0.0000 0.9781
vn -0.2079 0.0000 0.9781
vn -0.5878 0.0000 0.8090
vn -0.8660 0.0000 0.5000
vn -0.9945 0.0000 0.1045
vn -0.9510 0.0000 -0.3090
vn -0.7431 0.0000 -0.6691
vn -0.4067 0.0000 -0.9135
usemtl None
s 1
f 2/1/1 32/2/2 31/3/1
f 4/4/2 33/5/3 32/2/2
f 6/6/3 34/7/4 33/5/3
f 8/8/4 35/9/5 34/7/4
f 10/10/5 36/11/6 35/9/5
f 12/12/6 37/13/7 36/11/6
f 14/14/7 38/15/8 37/13/7
f 16/16/8 39/17/9 38/15/8
f 18/18/9 40/19/10 39/17/9
f 20/20/10 41/21/11 40/19/10
f 22/22/11 42/23/12 41/21/11
f 24/24/12 43/25/13 42/23/12
f 26/26/13 44/27/14 43/25/13
f 28/28/14 45/29/15 44/27/14
f 30/30/15 31/31/1 45/29/15
f 45/29/15 1/32/1 29/33/15
f 44/27/14 29/33/15 27/34/14
f 43/25/13 27/34/14 25/35/13
f 42/23/12 25/35/13 23/36/12
f 41/21/11 23/36/12 21/37/11
f 40/19/10 21/37/11 19/38/10
f 39/17/9 19/38/10 17/39/9
f 38/15/8 17/39/9 15/40/8
f 37/13/7 15/40/8 13/41/7
f 36/11/6 13/41/7 11/42/6
f 35/9/5 11/42/6 9/43/5
f 34/7/4 9/43/5 7/44/4
f 33/5/3 7/44/4 5/45/3
f 32/2/2 5/45/3 3/46/2
f 31/3/1 3/46/2 1/47/1
f 2/1/1 4/4/2 32/2/2
f 4/4/2 6/6/3 33/5/3
f 6/6/3 8/8/4 34/7/4
f 8/8/4 10/10/5 35/9/5
f 10/10/5 12/12/6 36/11/6
f 12/12/6 14/14/7 37/13/7
f 14/14/7 16/16/8 38/15/8
f 16/16/8 18/18/9 39/17/9
f 18/18/9 20/20/10 40/19/10
f 20/20/10 22/22/11 41/21/11
f 22/22/11 24/24/12 42/23/12
f 24/24/12 26/26/13 43/25/13
f 26/26/13 28/28/14 44/27/14
f 28/28/14 30/30/15 45/29/15
f 30/30/15 2/48/1 31/31/1
f 45/29/15 31/31/1 1/32/1
f 44/27/14 45/29/15 29/33/15
f 43/25/13 44/27/14 27/34/14
f 42/23/12 43/25/13 25/35/13
f 41/21/11 42/23/12 23/36/12
f 40/19/10 41/21/11 21/37/11
f 39/17/9 40/19/10 19/38/10
f 38/15/8 39/17/9 17/39/9
f 37/13/7 38/15/8 15/40/8
f 36/11/6 37/13/7 13/41/7
f 35/9/5 36/11/6 11/42/6
f 34/7/4 35/9/5 9/43/5
f 33/5/3 34/7/4 7/44/4
f 32/2/2 33/5/3 5/45/3
f 31/3/1 32/2/2 3/46/2
