# Blender v2.93.5 OBJ File: ''
# www.blender.org
mtllib cylinder_faceted.mtl
o Cylinder.001
v 0.045201 0.013846 -0.700684
v 0.045201 0.153287 -0.700684
v 0.163857 0.013846 -0.675462
v 0.163857 0.153287 -0.675462
v 0.261997 0.013846 -0.604160
v 0.261997 0.153287 -0.604160
v 0.322650 0.013846 -0.499105
v 0.322650 0.153287 -0.499105
v 0.335330 0.013846 -0.378463
v 0.335330 0.153287 -0.378463
v 0.297844 0.013846 -0.263093
v 0.297844 0.153287 -0.263093
v 0.216674 0.013846 -0.172944
v 0.216674 0.153287 -0.172944
v 0.105855 0.013846 -0.123604
v 0.105855 0.153287 -0.123604
v -0.015452 0.013846 -0.123604
v -0.015452 0.153287 -0.123604
v -0.126272 0.013846 -0.172944
v -0.126272 0.153287 -0.172944
v -0.207442 0.013846 -0.263093
v -0.207442 0.153287 -0.263093
v -0.244928 0.013846 -0.378463
v -0.244928 0.153287 -0.378463
v -0.232248 0.013846 -0.499105
v -0.232248 0.153287 -0.499105
v -0.171594 0.013846 -0.604160
v -0.171594 0.153287 -0.604160
v -0.073455 0.013846 -0.675462
v -0.073455 0.153287 -0.675462
v 0.045201 0.078530 -0.700684
v 0.163857 0.078530 -0.675462
v 0.261997 0.078530 -0.604160
v 0.322650 0.078530 -0.499105
v 0.335330 0.078530 -0.378463
v 0.297844 0.078530 -0.263093
v 0.216674 0.078530 -0.172944
v 0.105855 0.078530 -0.123604
v -0.015452 0.078530 -0.123604
v -0.126272 0.078530 -0.172944
v -0.207442 0.078530 -0.263093
v -0.244928 0.078530 -0.378463
v -0.232248 0.078530 -0.499105
v -0.171594 0.078530 -0.604160
v -0.073455 0.078530 -0.675462
vt 1.000000 1.000000
vt 0.933333 0.750000
vt 1.000000 0.750000
vt 0.933333 1.000000
vt 0.866667 0.750000
vt 0.866667 1.000000
vt 0.800000 0.750000
vt 0.800000 1.000000
vt 0.733333 0.750000
vt 0.733333 1.000000
vt 0.666667 0.750000
vt 0.666667 1.000000
vt 0.600000 0.750000
vt 0.600000 1.000000
vt 0.533333 0.750000
vt 0.533333 1.000000
vt 0.466667 0.750000
vt 0.466667 1.000000
vt 0.400000 0.750000
vt 0.400000 1.000000
vt 0.333333 0.750000
vt 0.333333 1.000000
vt 0.266667 0.750000
vt 0.266667 1.000000
vt 0.200000 0.750000
vt 0.200000 1.000000
vt 0.133333 0.750000
vt 0.133333 1.000000
vt 0.066667 0.750000
vt 0.066667 1.000000
vt 0.000000 0.750000
vt 0.000000 0.500000
vt 0.066667 0.500000
vt 0.133333 0.500000
vt 0.200000 0.500000
vt 0.266667 0.500000
vt 0.333333 0.500000
vt 0.400000 0.500000
vt 0.466667 0.500000
vt 0.533333 0.500000
vt 0.600000 0.500000
vt 0.666667 0.500000
vt 0.733333 0.500000
vt 0.800000 0.500000
vt 0.866667 0.500000
vt 0.933333 0.500000
vt 1.000000 0.500000
vt 0.000000 1.000000
vn 0.2079 0.0000 -0.9781
vn 0.5878 0.0000 -0.8090
vn 0.8660 0.0000 -0.5000
vn 0.9945 0.0000 -0.1045
vn 0.9511 0.0000 0.3090
vn 0.7431 0.0000 0.6691
vn 0.4067 0.0000 0.9135
vn -0.0000 0.0000 1.0000
vn -0.4067 0.0000 0.9135
vn -0.7431 0.0000 0.6691
vn -0.9511 0.0000 0.3090
vn -0.9945 0.0000 -0.1045
vn -0.8660 0.0000 -0.5000
vn -0.5878 0.0000 -0.8090
vn -0.2079 0.0000 -0.9781
usemtl None
s off
f 2/1/1 32/2/1 31/3/1
f 4/4/2 33/5/2 32/2/2
f 6/6/3 34/7/3 33/5/3
f 8/8/4 35/9/4 34/7/4
f 10/10/5 36/11/5 35/9/5
f 12/12/6 37/13/6 36/11/6
f 14/14/7 38/15/7 37/13/7
f 16/16/8 39/17/8 38/15/8
f 18/18/9 40/19/9 39/17/9
f 20/20/10 41/21/10 40/19/10
f 22/22/11 42/23/11 41/21/11
f 24/24/12 43/25/12 42/23/12
f 26/26/13 44/27/13 43/25/13
f 28/28/14 45/29/14 44/27/14
f 30/30/15 31/31/15 45/29/15
f 45/29/15 1/32/15 29/33/15
f 44/27/14 29/33/14 27/34/14
f 43/25/13 27/34/13 25/35/13
f 42/23/12 25/35/12 23/36/12
f 41/21/11 23/36/11 21/37/11
f 40/19/10 21/37/10 19/38/10
f 39/17/9 19/38/9 17/39/9
f 38/15/8 17/39/8 15/40/8
f 37/13/7 15/40/7 13/41/7
f 36/11/6 13/41/6 11/42/6
f 35/9/5 11/42/5 9/43/5
f 34/7/4 9/43/4 7/44/4
f 33/5/3 7/44/3 5/45/3
f 32/2/2 5/45/2 3/46/2
f 31/3/1 3/46/1 1/47/1
f 2/1/1 4/4/1 32/2/1
f 4/4/2 6/6/2 33/5/2
f 6/6/3 8/8/3 34/7/3
f 8/8/4 10/10/4 35/9/4
f 10/10/5 12/12/5 36/11/5
f 12/12/6 14/14/6 37/13/6
f 14/14/7 16/16/7 38/15/7
f 16/16/8 18/18/8 39/17/8
f 18/18/9 20/20/9 40/19/9
f 20/20/10 22/22/10 41/21/10
f 22/22/11 24/24/11 42/23/11
f 24/24/12 26/26/12 43/25/12
f 26/26/13 28/28/13 44/27/13
f 28/28/14 30/30/14 45/29/14
f 30/30/15 2/48/15 31/31/15
f 45/29/15 31/31/15 1/32/15
f 44/27/14 45/29/14 29/33/14
f 43/25/13 44/27/13 27/34/13
f 42/23/12 43/25/12 25/35/12
f 41/21/11 42/23/11 23/36/11
f 40/19/10 41/21/10 21/37/10
f 39/17/9 40/19/9 19/38/9
f 38/15/8 39/17/8 17/39/8
f 37/13/7 38/15/7 15/40/7
f 36/11/6 37/13/6 13/41/6
f 35/9/5 36/11/5 11/42/5
f 34/7/4 35/9/4 9/43/4
f 33/5/3 34/7/3 7/44/3
f 32/2/2 33/5/2 5/45/2
f 31/3/1 32/2/1 3/46/1
